<?xml version="1.0" encoding="UTF-8"?><svg id="Layer_2" xmlns="http://www.w3.org/2000/svg" viewBox="0 0 395.37 338.13"><defs><style>.cls-1{fill:#fff;}.cls-2{fill:#0a0203;}.cls-3{fill:#ef4043;}</style></defs><g id="Layer_1-2"><path class="cls-2" d="m.5,310.49h8.33c3.45,0,5.92,1.24,7.27,4.13,1.09,2.29,1.2,7.69,1.2,8.55,0,5.78-.52,9.12-1.65,10.91-1.46,2.33-4.2,3.49-8.93,3.49H.5v-27.08H.5Zm3.45,24.08h3.26c4.8,0,6.56-1.8,6.56-8.1v-5.48c0-5.48-1.69-7.5-5.29-7.5H3.95s0,21.08,0,21.08Z"/><path class="cls-2" d="m23.34,337.56v-27.08h13.95v3h-10.5v8.7h9.75v3h-9.75v9.38h10.72v3h-14.18,0Z"/><path class="cls-2" d="m42.54,337.56v-27.08h8.03c3.64,0,7.54,1.35,7.54,7.73s-4.8,7.42-7.58,7.42h-4.54v11.92h-3.45,0Zm3.45-14.93h3.79c1.43,0,4.8-.37,4.8-4.61s-3.08-4.54-3.83-4.54h-4.76v9.15h0Z"/><path class="cls-2" d="m67.18,310.49h4.39l8.81,27.08h-3.86l-1.95-6.45h-10.46l-2.03,6.45h-3.49l8.59-27.08h0Zm2.1,3.19h-.08l-4.24,14.44h8.66l-4.35-14.44Z"/><path class="cls-2" d="m87.36,325.11v12.45h-3.45v-27.08h9.34c4.8,0,6.49,3.38,6.49,6.75,0,3.19-1.76,5.63-4.95,6.19v.07c3.11.49,4.24,1.54,4.43,6.98.04,1.16.41,5.4.94,7.09h-3.6c-.97-1.87-.75-5.4-1.05-9-.26-3.3-2.92-3.45-4.09-3.45h-4.05Zm0-3h5.17c2.48,0,3.68-2.14,3.68-4.5,0-1.95-.97-4.12-3.64-4.12h-5.21v8.63Z"/><path class="cls-2" d="m120.02,310.49v3h-7.12v24.08h-3.45v-24.08h-7.12v-3h17.7Z"/><path class="cls-2" d="m126.85,337.56h-3.23v-27.08h5.59l6.83,22.73h.08l6.9-22.73h5.7v27.08h-3.45v-24.08h-.07l-7.58,24.08h-3.26l-7.43-24.08h-.07v24.08h0Z"/><path class="cls-2" d="m154.83,337.56v-27.08h13.95v3h-10.5v8.7h9.75v3h-9.75v9.38h10.73v3h-14.18Z"/><path class="cls-2" d="m192.33,310.49v27.08h-4.73l-10.69-23.48h-.07v23.48h-3.08v-27.08h4.88l10.54,23.18h.07v-23.18h3.08,0Z"/><path class="cls-2" d="m213.78,310.49v3h-7.12v24.08h-3.45v-24.08h-7.12v-3h17.7Z"/><path class="cls-2" d="m225.55,327.66v-8.89c0-5.4,2.77-8.85,8.51-8.85s8.51,3.45,8.51,8.85v8.89c0,7.5-2.77,10.46-8.51,10.46s-8.51-2.96-8.51-10.46Zm13.5.15v-9.15c0-5.66-3.9-5.85-4.99-5.85s-4.99.19-4.99,5.85v9.15c0,5.92,1.72,7.42,4.99,7.42s4.99-1.5,4.99-7.42Z"/><path class="cls-2" d="m248.31,337.56v-27.08h13.43v3h-9.98v8.7h9.45v3h-9.45v12.37h-3.45Z"/><path class="cls-2" d="m273.55,337.56v-27.08h13.95v3h-10.5v8.7h9.75v3h-9.75v9.38h10.73v3h-14.18Z"/><path class="cls-2" d="m311.06,310.49v27.08h-4.73l-10.69-23.48h-.07v23.48h-3.08v-27.08h4.88l10.54,23.18h.07v-23.18h3.08Z"/><path class="cls-2" d="m317.32,337.56v-27.08h13.95v3h-10.5v8.7h9.75v3h-9.75v9.38h10.73v3h-14.18Z"/><path class="cls-2" d="m339.44,325.11v12.45h-3.45v-27.08h9.34c4.8,0,6.49,3.38,6.49,6.75,0,3.19-1.76,5.63-4.95,6.19v.07c3.11.49,4.24,1.54,4.42,6.98.04,1.16.41,5.4.94,7.09h-3.6c-.97-1.87-.75-5.4-1.05-9-.26-3.3-2.92-3.45-4.09-3.45h-4.05Zm0-3h5.17c2.47,0,3.67-2.14,3.67-4.5,0-1.95-.97-4.12-3.64-4.12h-5.21v8.63h0Z"/><path class="cls-2" d="m369.89,317.72c0-3.19-1.31-4.91-4.8-4.91-1.09,0-4.99.19-4.99,5.85v9.15c0,5.92,1.72,7.42,4.99,7.42,2.47,0,4.12-.67,4.84-1.2v-8.1h-4.99v-3h8.44v13.17c-2.21,1.2-4.8,2.02-8.29,2.02-5.74,0-8.51-2.96-8.51-10.46v-8.89c0-5.4,2.77-8.85,8.51-8.85s8.63,2.14,8.4,7.8h-3.6Z"/><path class="cls-2" d="m391.72,310.49h3.49l-7.39,16.76v10.31h-3.45v-10.31l-7.27-16.76h3.86l5.29,13.09,5.48-13.09h0Z"/><path class="cls-2" d="m6.03,257.32c.59,0,1.1-.21,1.52-.63s.64-.93.64-1.52-.21-1.1-.64-1.52c-.42-.42-.93-.64-1.52-.64s-1.1.21-1.53.64c-.42.42-.63.93-.63,1.52s.21,1.1.63,1.52.93.63,1.53.63Z"/><path class="cls-2" d="m13.2,257.32c.59,0,1.1-.21,1.52-.63s.63-.93.63-1.52-.21-1.1-.63-1.52-.93-.64-1.52-.64-1.1.21-1.52.64-.63.93-.63,1.52.21,1.1.63,1.52.93.63,1.52.63Z"/><path class="cls-2" d="m79.08,262.08c-1.9,0-3.64.22-5.2.66-1.57.44-2.92,1.1-4.06,1.97-1.14.87-2.02,1.92-2.63,3.17s-.92,2.68-.92,4.29c0,3.43,1.37,6.07,4.12,7.93H16.25c-.51,0-.76-.3-.76-.89v-18.72c-1.06.3-2.45.79-4.19,1.49s-3.44,1.64-5.11,2.83c-1.67,1.18-3.12,2.63-4.35,4.35-1.23,1.71-1.84,3.73-1.84,6.06,0,.89.12,1.81.37,2.76.25.95.74,1.84,1.46,2.67.72.83,1.76,1.54,3.09,2.13,1.33.59,3.08.95,5.23,1.08l.25-3.3c-2.46-.21-4.25-.68-5.39-1.43-1.14-.74-1.72-2.04-1.72-3.9,0-1.35.32-2.56.96-3.62.64-1.06,1.41-1.99,2.3-2.79.89-.8,1.85-1.49,2.88-2.06,1.02-.57,1.92-1.05,2.68-1.43l.06,13.9c0,1.35.33,2.39,1,3.11.66.72,1.54,1.08,2.62,1.08h67.21v-21.01c-.8-.13-1.48-.21-2.03-.25-.55-.04-1.18-.06-1.9-.06h0Zm.64,18.09c-3.45-.47-6.01-1.38-7.67-2.74-1.66-1.36-2.49-3.08-2.49-5.16,0-1.45.28-2.61.83-3.5.55-.89,1.27-1.59,2.17-2.1.9-.51,1.92-.86,3.07-1.05,1.15-.19,2.3-.28,3.45-.28.09,0,.15.01.19.03.05.02.11.03.19.03h.26v14.79h0Z"/><path class="cls-2" d="m73.74,256.43c.59,0,1.1-.21,1.52-.63.42-.42.64-.93.64-1.52s-.21-1.1-.64-1.52c-.42-.42-.93-.63-1.52-.63s-1.1.21-1.52.63c-.42.43-.63.93-.63,1.52s.21,1.1.63,1.52.93.63,1.52.63Z"/><path class="cls-2" d="m80.98,252.12c-.59,0-1.1.21-1.52.63-.43.43-.64.93-.64,1.52s.21,1.1.64,1.52c.42.42.93.63,1.52.63s1.1-.21,1.52-.63c.42-.42.64-.93.64-1.52s-.21-1.1-.64-1.52c-.42-.42-.93-.63-1.52-.63Z"/><path class="cls-2" d="m221.49,280.1h-51.41v-18.22h-1.71c-3.05,0-5.75.34-8.12,1.02-2.37.68-4.44,1.53-6.22,2.57-1.77,1.04-3.29,2.2-4.54,3.49s-2.28,2.57-3.08,3.84v-22.91h-3.3v30.21h-51.72v-30.02h-3.3v33.32h136.7v-33.51h-3.3v30.21h0Zm-54.71,0h-20.18c.25-.89.74-2.1,1.46-3.65.72-1.54,1.83-3.08,3.33-4.6,1.5-1.52,3.49-2.9,5.97-4.12,2.47-1.23,5.61-2.01,9.42-2.35v14.73h0Z"/><rect class="cls-2" x="229.86" y="250.09" width="3.3" height="33.32"/><path class="cls-2" d="m254.23,257.32c.59,0,1.1-.21,1.52-.63s.63-.93.63-1.52-.21-1.1-.63-1.52c-.42-.42-.93-.64-1.52-.64s-1.1.21-1.52.64-.63.93-.63,1.52.21,1.1.63,1.52c.42.42.93.63,1.52.63Z"/><path class="cls-2" d="m261.4,257.32c.59,0,1.1-.21,1.53-.63.42-.42.63-.93.63-1.52s-.21-1.1-.63-1.52c-.43-.42-.93-.64-1.53-.64s-1.1.21-1.52.64c-.42.42-.63.93-.63,1.52s.21,1.1.63,1.52c.42.42.93.63,1.52.63Z"/><path class="cls-2" d="m257.53,262.56c-1.14.53-2.29,1.18-3.46,1.94-1.16.76-2.21,1.64-3.14,2.63-.93.99-1.7,2.12-2.29,3.36-.59,1.25-.89,2.63-.89,4.16,0,1.65.41,3.04,1.24,4.16.83,1.12,1.84,2.02,3.05,2.7,1.21.68,2.5,1.17,3.87,1.46s2.61.44,3.71.44h3.49v-22.78c-.59.13-1.39.35-2.38.66-.99.32-2.06.74-3.21,1.27h0Zm2.29,17.42h-.38c-.85,0-1.76-.08-2.73-.25-.97-.17-1.88-.47-2.73-.89-.85-.42-1.55-.97-2.09-1.65-.55-.68-.83-1.5-.83-2.48,0-1.27.32-2.41.95-3.43.64-1.01,1.4-1.91,2.29-2.7.89-.78,1.84-1.45,2.86-2,1.01-.55,1.9-.99,2.67-1.33v14.73h0Z"/><path class="cls-2" d="m361.23,255.69c.34-.21.78-.32,1.33-.32.85,0,1.76.21,2.73.64l.63-1.61c-1.14-.47-2.28-.71-3.43-.71-.85,0-1.63.24-2.35.71-.72.47-1.08,1.28-1.08,2.44,0,.51.08,1.01.25,1.48.17.47.34.75.51.84h-2.73v1.65h8.51v-1.65h-1.59c-.93,0-1.71-.18-2.35-.55-.63-.36-.95-.95-.95-1.77,0-.56.17-.94.51-1.15h0Z"/><path class="cls-2" d="m361.29,280.1h-89.16v-16.25h-3.3v21c0,1.14-.04,2.24-.13,3.3-.09,1.06-.31,2-.67,2.82s-.9,1.49-1.62,2c-.72.51-1.69.76-2.92.76v3.3c1.94,0,3.49-.37,4.63-1.11,1.14-.74,2.01-1.7,2.6-2.89.59-1.19.97-2.5,1.14-3.94.17-1.44.26-2.86.26-4.25v-1.46h92.46v-19.54h-3.3v16.25h0Z"/><rect class="cls-2" x="369.73" y="250.09" width="3.3" height="33.32"/><path class="cls-2" d="m394.75,269.22c-.42-1.46-1.04-2.76-1.87-3.9-.83-1.14-1.88-2.06-3.16-2.76-1.27-.7-2.75-1.05-4.44-1.05-1.82,0-3.39.32-4.7.95-1.31.63-2.39,1.31-3.23,2.03l1.97,2.54c1.18-.85,2.24-1.43,3.17-1.74.93-.32,1.84-.48,2.73-.48,1.06,0,2.02.24,2.89.73.87.48,1.59,1.13,2.16,1.94.57.8,1.01,1.74,1.33,2.82.32,1.08.48,2.21.48,3.39,0,1.52-.15,2.81-.44,3.87-.3,1.06-.57,1.9-.83,2.54h-13.64v3.3h15.72c.17-.3.39-.75.68-1.36.29-.61.57-1.34.84-2.19.27-.85.5-1.8.69-2.86.19-1.06.28-2.16.28-3.3,0-1.52-.21-3.01-.62-4.47h0Z"/><path class="cls-1" d="m268.33,181.17c-5.17,10.18-11.62,16.52-20.43,22.11-12.87,8.17-26.28,6.21-30.66,3.68,0,0,.36.85.47,1.13.14.3.32.79.42,1.05,1.73,4.65.56,9.46-5.74,10.18-1.65.19-3.51.26-5.69,1.28-1.52.72-3.22,1.88-5.1,3.81-.79.81-2.42,2.91-3.22,4.54h0s0,0,0,0h0s0,0,0,0c-.81-1.63-2.44-3.73-3.22-4.54-1.87-1.94-3.56-3.09-5.09-3.81-2.18-1.02-4.04-1.09-5.7-1.28-6.29-.72-7.43-5.54-5.73-10.2.1-.26.28-.73.41-1.03l.46-1.14c-3.18,1.85-11.1,3.28-20.31.78-.22-.07-.67-.18-.9-.24-7.41-1.95-13.97-5.63-19.51-10.87-6.7-6.28-10.37-13.08-11.75-15.66-12.24-25.32-10.52-62.88-10.57-66.89-.41-43.37,9.2-67.69,17.44-79.45-2.48-3.28-4-5.26-4.1-5.37-.83-.83-2.25-2.12-5.18-2.53-.81-5.69-2.94-12.43-2.94-12.43,0,0,5.69,4.09,10.98,6.38-.4,2.86.34,4.6,1.06,5.65.1.14,1.29,1.73,3.27,4.35,3.65-4.55,7.53-7.86,13.64-11.4,1.47-.83,3.04-1.64,4.74-2.4-.11-2.32.68-4.49,2.21-6.05.07-1.34,1.19-3.01,2.54-3.51h.01c1.41-.38,3.51.27,4.54,1.25,2.3.32,4.5,1.52,6.13,3.34,5.03-1.07,10.74-1.86,17.3-2.27.77-3.19,2.84-5.5,5.38-6.76.66-1.38,2.57-2.78,4.22-2.86h.02c1.64.08,3.56,1.49,4.22,2.86,2.55,1.26,4.6,3.57,5.38,6.76,6.55.4,12.27,1.2,17.28,2.27,1.62-1.82,3.84-3.02,6.13-3.34,1.05-.98,3.15-1.63,4.55-1.26h0c1.35.5,2.48,2.18,2.55,3.52,1.52,1.56,2.33,3.73,2.21,6.05,1.7.76,3.28,1.57,4.74,2.4,6.11,3.53,10.37,7.38,13.92,11.55,2.18-2.89,3.5-4.64,3.6-4.8.72-1.04,1.46-2.78,1.06-5.64,5.3-2.29,10.98-6.39,10.98-6.39,0,0-2.12,6.74-2.93,12.43-2.93.41-4.34,1.71-5.17,2.54-.12.12-1.86,2.39-4.65,6.09,8.2,11.84,17.68,35.96,17.26,79.05.05,3.44,1.69,41.75-10.55,67.07m-27.1-127.21c-12.87-12.7-31.28-13.56-36.08-13.21-1.13.08-2.41.98-.99,2.83-1.04.47-4.97.12-6.43-1.25-1.48,1.37-5.41,1.72-6.45,1.25,1.43-1.86.15-2.76-.99-2.83-4.83-.35-24.2,1.53-35.89,12.93,6.45,8.52,19.91,26.32,20.19,26.67.25.34.92.78,1.74.79.1,0,.21,0,.32,0,.7-.04,1.36-.52,2.07-1.3,1.4-1.52,2.09-2.37,3.46-3.77,2.64-2.7,5.14-4.76,5.56-5.15,1.11-1.04,1.48-1.86,1.52-2.72-.07-.97-.84-1.36-1.32-1.95-.02.09-.16.25-.24.34-.43-.34-.92-1.84-.92-1.84l-.26.69s-.99-2.39-2.56-2.17c-2.16.29-3.55-.64-3.71-.69-.13-.04-.22.69-.17,1.52-.03,0-.06-.02-.08-.03-1.48-1.25-1.92-4.49.92-6.57,1.75-1.28,2.08-1.24,3.42-1.88.57-.27,1.01-.82,1.14-.98.91-1.11,2.73-1.73,3.77-2.01,1.32-.35,4.43-.79,7.55-.61,1.75.09,3.4.49,4.57.98.92.37,3.6,2.34,5.07,4.28.98,1.28,2.65,4.89,3.59,7.18,1.96,4.8,1.73,4.28,3.07,7.46,1.52,3.64,2.44,5.66,3.9,7.71.51.7,1.05.98,2.03,1.03.74.04,1.47-.1,2.11-.49.59-.36.71-.59.89-.84,4.52-6.56,12.92-17.08,19.22-25.39"/><path class="cls-3" d="m209.76,195.25c-.07.09-.15.21-.24.28-.03.02-.06.03-.07.03,0,0-.03,0-.07-.03-.27-.12-1.06-.61-2.01-1.49,1.02,3.88,1.92,10.2,2.17,15.35,2.76-1.15,4.97-.29,6.38.89-.04-.1-5.53-13.6-6.13-15.06,0,.01-.01.01-.02.02"/><path class="cls-3" d="m235.49,69.69s.07.02.11.03c.15.04.31.08.45.14.89.35,1.67.87,2.33,1.57,2.6,2.71,6.85,9.27,9.31,16.05,1.34,4.25,2.39,10.06,2.11,15.03h.01s-1.53,28.07-4.54,54.96c-2.74,24.44-4.24,27.64-4.24,27.64-1.75-2.25-2.48-5.12-2.89-6.75l-.26.23s-1.59-2.44-2.55-7.25c-1.09-5.48-1.28-15.28-1.17-20.01v.02s.07-1.39-1.01-3.75c-.5-1.12-.9-2.23-1.17-3.42-.01-.01-.02-.03-.03-.05-1.65-7.51-4.88-9.64-6.65-11.96-2.23-2.92-3.61-4.66-4.41-6.38-1.3,1.24-2.32,2.52-2.37,3.22.45,4.53.86,7.76.19,10.06-.28-.15-.7-.59-.95-.77.3,3-1.11,6.47-.21,9.22l-1.78-.23c.08.2.15.36.2.43.25.33.48.54.9.77.08.04.44.21.58.27.16.08.59.24,1.82.64,1.03-2.26.24-4.42-.77-5.64-.85-1.02.17-2.52,1.92-1.75,2.25,1,4.7,2.42,7.28,4.87,3.7,3.52,4.79,6.91,4,7.58-.61.52-1.07.41-1.79.16,0,.13-.02.26-.06.4-.2.66-.76,1.14-1.59,1.37l-.07.13c-.4.55-1.04.76-2.16.74-.96-.02-2.02-.58-2.17-.65-.19-.1-.44-.25-.73-.53-.33.25-.68.53-1.04.86.03.03.4.44.4.44.24.24,1.44,1.56,1.73,3.15,0,0,.08.49.1.73,3.07,3.65,6.67,8.08,9.24,12.47,2.73,4.65,3.99,8.54,3.99,8.54,0,0-1.45.45-3.37.04.68,1.86,1.04,3.5.91,4.75-1.47.05-3.41-.12-5.42-1.2.13.62.23,1.26.31,1.9,2.73,1.77,4.75,3.42,5.83,4.18-8.79,4.12-21.53,2.23-21.78,2.2-.74-.09-1.39-.2-1.95-.28,0,0-.38-.09-.4-.09,0,0,3.13,7.45,3.71,8.67,5.58,2.55,10.78,4.23,18.78,2.9,0,0,1.36-.13,4.78-1.28,3.5-1.18,10.07-5.02,15.1-9.75,6.27-5.89,10.08-12.09,11.32-14.51,9.73-19.01,11.33-47.19,11.33-58.58,0-3.73.01-5.75.01-5.92-.06-3.83-.29-9.55-.43-12.44-3.39,2.97-7.64,6.07-20.94,13.39l-2.35,1.35-.11-2.77c0-.23-.15-23.34-11.88-52.44-1.82,2.42-3.68,4.87-5.51,7.32"/><path class="cls-3" d="m187.23,209.4c.23-4.48.98-10.63,1.86-14.99-.23.2-.72.55-.91.69-.18.14-.57.39-.72.45-.03.01-.05.01-.06.02-.01,0-.03-.01-.05-.03-.07-.04-.27-.3-.3-.37-.98,2.35-6.14,15.01-6.18,15.11,1.41-1.18,3.62-2.05,6.37-.89"/><path class="cls-3" d="m207.85,212.75c.18-3.97-1.69-15.62-2.5-20.38h0c-.28-.1-.55-.2-.84-.31-.23.64-.49,1.31-.8,1.97-.58,1.21-1.49,2.48-1.66,2.46-.15-.02-2.58-1.65-4.12-4.87-1.55,3.16-3.94,4.77-4.09,4.79-.18.01-1.08-1.25-1.67-2.47-.32-.68-.59-1.36-.83-2.04-.03.05-.06.09-.1.13-.75,4.88-2.5,16.76-2.33,20.72-5.27-3.47-8.45,0-7.37,2.42.11.21.23.4.36.57.63.84,1.45,1.29,2.61,1.39,1.7.11,3.94.28,6.48,1.48,2.33,1.09,4.84,2.9,7.39,6.08,2.55-3.18,5.06-4.99,7.38-6.08,2.55-1.19,4.8-1.37,6.5-1.48,1.15-.09,1.96-.62,2.6-1.39.15-.16.25-.36.36-.57,1.09-2.43-2.11-5.9-7.38-2.42"/><path class="cls-3" d="m130.01,179.57c1.3,2.4,4.77,8.82,11.04,14.7,4.76,4.49,10.31,7.67,16.48,9.65.36.11,1.06.36,1.43.47,7.11,2.25,14.83,1.79,22.43-2.02l.08-.21c.52-1.41,3.58-8.64,3.58-8.64-.14.02-.25.05-.37.07-1.37.24-2.77.44-4.16.59-.81.08-12.93,1.95-21.71-2.18,1.29-.91,3.95-3.12,7.58-5.25.05-.37.12-.74.19-1.1-2.01,1.08-3.94,1.26-5.41,1.21-.12-1.26.23-2.9.91-4.76-1.92.41-3.37-.04-3.37-.04,0,0,1.26-3.88,3.99-8.54,2.14-3.64,4.98-7.31,7.64-10.55-.16-.36-.26-.77-.27-1.21,0-.52.08-.94.14-1.25.29-1.63,1.58-3,1.73-3.16.08-.08.46-.49.53-.57-.36-.32-.71-.6-1.04-.85-.35.37-.63.56-.86.66-1.02.46-1.63.63-2.17.65-1.11.04-1.75-.18-2.15-.74l-.07-.13c-.83-.23-1.39-.71-1.59-1.37-.05-.14-.06-.28-.06-.42-.61.21-1.05.25-1.6-.22-.79-.67.3-4.06,4-7.57,2.59-2.46,5.04-3.88,7.29-4.88,1.74-.77,2.77.73,1.92,1.76-1.03,1.22-1.81,3.39-.78,5.66,1.06-.35,1.48-.53,1.64-.59.41-.16.91-.31,1.46-1.02.05-.07.11-.2.18-.38l-1.54.18c.79-1.94-.43-6.7.37-9.78-.21.14-.75.51-1.06.61-.57-2.81-.49-7.26-.26-9.42-.05-.59-.91-1.65-2.08-2.81-.83,1.56-2.15,3.24-4.16,5.88-1.78,2.34-5.01,4.45-6.65,11.96,0,.02-.01.03-.02.05-.08.3-.14.59-.23.88h0c-.09.32-.2.64-.31.96-.07.2-.15.4-.23.61-.12.33-.26.65-.41.97-1.08,2.37-1.01,3.75-1.01,3.75v-.03c.11,4.74-.08,14.53-1.18,20.01-.96,4.81-2.56,7.25-2.56,7.25l-.25-.23c-.42,1.63-1.14,4.49-2.9,6.75,0,0-1.51-3.2-4.25-27.64-3.01-26.89-4.53-54.96-4.53-54.96,0,0,0,0,.01,0-.28-4.97.68-10.8,2.11-15.02,2.32-6.83,6.7-13.33,9.32-16.05.7-.72,1.55-1.34,2.52-1.62,0,0,.58-.15.87-.18h.01c-1.91-2.53-3.81-5.07-5.7-7.57-11.84,29.23-11.98,52.49-11.98,52.73l-.12,2.77-2.35-1.35c-13.29-7.33-17.54-10.43-20.94-13.4-.14,2.89-.42,12.39-.42,12.39-.01.16,0,2.23,0,5.96,0,11.4,2.04,39.36,11.33,58.58"/><path class="cls-2" d="m215.76,96.47c1.19,1.55-.25,3.94-1.31,5.6.47-2.27.74-4.05,1.31-5.6m-32.08-12.18c1.06-3.81,3.21-5.99,3.94-8.21-3.82,2.71-4.62,6.87-3.94,8.21m24.23,31.19c2.31-2.86,3.53-6.15,2.53-9.52-2.07,3.23-2.12,6.51-2.53,9.52m7.15-25.46c-1.64.37-1.03,6.83-1.08,6.81-.03-.07,2.5-4.41,1.08-6.81m-32.4,11.3c-.89,3.81,2.91,7.47,2.93,7.53,0,.05.01-4.52-2.93-7.53m-.05,6.18c-.15.68.43,2.78,1.18,4.02,1.31,2.21,2.33,3.21,3.37,4.26-1.63-2.48-2.93-7.05-4.54-8.28m31.21-27.33c-.25,1.95,2.01,6.4,2.11,6.76.05-.32,1.3-4.04-2.11-6.76m-34.72,9.1c-.29-1.88,2.03-3.6,1.23-6.62-2.31,2.62-1.86,5.08-1.23,6.62m6.26,4.88c-.06,1.61-.03,3.11-.42,4.88-1.08-.27-1.59-1-2.38-1.67.64,2.16,3.32,4.65,3.75,5.28.37-2.93.49-6.5-.94-8.48m13.58-36.76c.71.72,2.99,1.67,4.25,2.86-.18-1.95-1.87-3-4.25-2.86m6.9,16.02c-.01-1.45-.45-3.99-3.76-4.48-.21,1.71,2.69,2.76,3.76,4.48m-13.85-17.1s.27.46.16,1.25c-.11.79-.47,1.53-1.64,1.8-1.23.29-2.52-.48-2.56-1.79-.01-.34.08-.78.23-1.07-.41.05-.42.34-.83.85-.24.3-.64.28-1.2.66,0-.76.83-1.95,1.77-2.37,1.38-.62,6.17-.83,9.57.94-1.19-.22-2.23-.14-3.36-.21-1.39-.07-2.12-.06-2.12-.06m-.62.02c-.15-.08-1.22-.07-1.34.14-.12.22.65.56.9.65.16.05.37-.03.49-.25.12-.22.1-.46-.05-.55m4.74,1.03c1.06,1.3,2.17,2.41,4.02,2.28-1.34-1.58-3.13-2.14-4.02-2.28m17.75,46.85c-1.51,2.03-1.94,6.63-2.4,8.17.54-.48,3.29-7.02,2.4-8.17m-9.02-40.58c-.1-.42-1.18-1.94-3.46-2.42.63.58,1.01,1.64,1.23,2.02-.45.24-1.65.37-2.06.43.83.59,2.38.72,4.29-.03m-.31,14.43c-1.53,1.67-.1,4.96.78,7.92.81-1.45,1.79-6.35-.78-7.92m8.15,7.56c-.88,4.05-2.64,5.6-2.64,5.58,0,0-1.4-1.13-2.6-2.7-.07,3.28,2.74,6.45,2.69,6.43-.02-.02,3.43-2.76,2.55-9.32m-4.33-14.03c-.33,1.84,2.62,4.62,2.61,4.64,0,0,.4-3.52-2.61-4.64m-6.12-4.39c.76.76,3.18,1.34,4.54,2.6-.19-2.08-2.31-3.37-4.54-2.6m41.04,22.89c-.66,6.85-1.18,8.26-1.86,9.45-.57-.42-1.05-1.83-1.05-1.83-.2,1.24.08,3.15,1.08,4.15,1.35-1.79,2.29-5.59,1.84-11.78m-62.87,10.94c-.51-3.24-.3-5.41-1.89-8.26-.51,3.41,1.54,7.75,1.89,8.26m50.85,7.41s-1.06-2.59,1.4-10.41c-3.59,7.97-3.11,10.12-2.31,12.83,1.54-1.16,2.15-1.94,2.48-3.75-.57.89-1.57,1.33-1.57,1.33m-2.39-6.78s-.85-1.76,1.34-8.55c-4.02,6.46-2.26,10.97-2.26,10.97,0,0,2.12-1.12,2.66-3.56-.61.83-1.74,1.14-1.74,1.14m17.49,4.47s1.75-2.88.84-7.72c-.22,4.55-1.23,6.25-1.23,6.25,0,0-.62-.43-.75-.76-.04,1.4,1.14,2.23,1.14,2.23m-3.58-4.6c-.11,1.58,1.2,2.58,1.2,2.58,0,0,2.09-3.2,1.28-8.74-.43,5.17-1.51,6.94-1.51,6.94,0,0-.84-.42-.97-.79m-.78-16.01c-1.02,7.66-2.16,9.41-2.96,10.72-.58-.47-1.11-2.36-1.11-2.36-.27,1.39-.05,3.53,1.02,4.71,1.57-1.95,3.29-6.09,3.06-13.07m-30.33,44.94s-.02-1.2-.42-1.64c-.32,1.49-2.3,4.64-1.86,8.28.9-3.26,3.42-3.93,4.07-6.95.54.36,1.04.52,1.59.57-.31-1.2-1.19-2.44-1.49-4.94-.27.84-.59,3.29-1.9,4.67m28.46-47.79c-.98,6.35-2.68,9.02-3.55,10.27-.68-2.1-.52-4.15-.52-4.15-.97,2.99-.68,5.47.32,6.72,1.67-1.83,4.06-7.54,3.75-12.83m-6.13,5.9c-.48-2.15-.22-5.38-.22-5.38-1.24,2.89-1.09,6.83-.2,8.17,1.82-1.67,4.33-6.62,4.5-11.92-1.56,6.24-3.11,7.98-4.09,9.14m-31.61,12.22s2.94-2.74,3.2-8.37c-1.64,2.77-3.47,4.35-3.46,4.33,0,0-1.58-1.06-2.87-2.65.01,3.58,3.17,6.7,3.13,6.68m-43.86-7.84c-.87-1.25-2.55-3.92-3.54-10.27-.31,5.3,2.08,11.01,3.76,12.83.99-1.25,1.29-3.73.31-6.72,0,0,.16,2.05-.53,4.15m5.34,15.5s-.98-.44-1.56-1.33c.33,1.81.95,2.59,2.48,3.75.79-2.71,1.28-4.86-2.31-12.83,2.45,7.82,1.39,10.41,1.39,10.41m-2.75-19.88c-.98-1.16-2.52-2.9-4.08-9.14.17,5.31,2.68,10.25,4.51,11.92.88-1.34,1.04-5.28-.2-8.17,0,0,.25,3.23-.23,5.38m23.15-30.6c-.2.13-.39.78.35.8.62.02.74-.67.74-.67,0,0-.78-.32-1.09-.13m-30.55,41.58c-.68-1.19-1.2-2.6-1.86-9.45-.46,6.19.49,9.99,1.83,11.78,1-1.01,1.28-2.91,1.07-4.15,0,0-.48,1.41-1.05,1.83m-4.56,5.1s-1.01-1.69-1.23-6.25c-.9,4.84.84,7.72.84,7.72,0,0,1.18-.84,1.14-2.23-.13.33-.75.76-.75.76m2.22-2.33s-1.08-1.78-1.51-6.94c-.82,5.54,1.28,8.74,1.28,8.74,0,0,1.3-1,1.2-2.58-.13.37-.97.79-.97.79m4.71-6.08c-.8-1.3-1.94-3.06-2.96-10.72-.25,6.97,1.48,11.12,3.05,13.07,1.07-1.18,1.31-3.32,1.02-4.71,0,0-.53,1.89-1.11,2.36m29.1,40.64c.45-3.65-1.53-6.79-1.85-8.29-.4.44-.42,1.65-.42,1.65-1.31-1.38-1.63-3.83-1.91-4.67-.29,2.5-1.18,3.73-1.49,4.93.55-.05,1.05-.22,1.6-.58.65,3.03,3.17,3.7,4.06,6.96m-18.93-35.22s-1.13-.31-1.74-1.14c.54,2.44,2.66,3.56,2.66,3.56,0,0,1.76-4.51-2.27-10.97,2.21,6.79,1.35,8.55,1.35,8.55m36.01,18.84c.68-1.58,2.42-4.5,2.05-7.89-1.49,1.28-2.2,5.87-2.05,7.89m-.2,10.37c.72-1.7,2.21-3.35,2.16-8.77-1.62,1.62-2.31,6.71-2.16,8.77m.8-25.4c-.63,2.28-1.66,3.77-3.34,5.48-.71-.66-1.43-1.45-2.4-3.4-.38,3.79,1.78,5.99,3.02,6.82.77-.64,3.3-4.22,2.73-8.91m-3.99,27.5c.84-2.18.78-4.9-.14-6.08-.73,2.33-.78,4.4.14,6.08m-2.43-6.52c.82-2.5.63-5.52-.44-6.85-.71,2.54-.67,4.88.44,6.85m71.88,54.72c-5.17,10.18-11.62,16.52-20.43,22.12-12.87,8.17-26.28,6.2-30.65,3.67,0,0,.35.85.46,1.13.14.3.32.79.42,1.05,1.73,4.65.56,9.46-5.74,10.18-1.65.19-3.51.26-5.69,1.28-1.52.72-3.22,1.88-5.1,3.8-.79.82-2.42,2.92-3.22,4.55h0s0,0,0,0c-.81-1.63-2.44-3.73-3.22-4.55-1.87-1.93-3.57-3.08-5.1-3.8-2.18-1.02-4.03-1.09-5.7-1.28-6.29-.72-7.43-5.54-5.73-10.2.1-.25.28-.73.41-1.02l.46-1.15c-3.19,1.85-11.1,3.28-20.31.78-.23-.06-.68-.18-.91-.24-7.41-1.96-13.97-5.64-19.51-10.87-6.7-6.29-10.37-13.1-11.75-15.67-12.24-25.32-10.52-62.88-10.57-66.89-.41-43.37,9.2-67.69,17.44-79.46-2.48-3.27-3.99-5.26-4.1-5.36-.83-.83-2.26-2.13-5.18-2.54-.81-5.69-2.94-12.43-2.94-12.43,0,0,5.69,4.09,10.98,6.38-.4,2.86.34,4.61,1.06,5.65.1.14,1.3,1.73,3.27,4.35,3.65-4.55,7.53-7.86,13.65-11.39,1.47-.83,3.04-1.64,4.74-2.4-.11-2.32.68-4.49,2.21-6.05.07-1.33,1.19-3,2.54-3.51h.01c1.41-.38,3.51.27,4.54,1.25,2.31.33,4.51,1.52,6.13,3.34,5.03-1.08,10.74-1.86,17.3-2.27.77-3.19,2.83-5.5,5.38-6.76.66-1.38,2.57-2.78,4.22-2.87h.02c1.64.09,3.56,1.49,4.22,2.87,2.55,1.26,4.6,3.57,5.38,6.76,6.55.4,12.27,1.19,17.29,2.27,1.62-1.82,3.83-3.02,6.13-3.34,1.04-.98,3.14-1.63,4.54-1.26h0c1.35.51,2.48,2.19,2.55,3.51,1.52,1.56,2.32,3.73,2.21,6.05,1.7.77,3.26,1.57,4.74,2.4,6.11,3.53,10.37,7.38,13.92,11.56,2.18-2.89,3.5-4.65,3.6-4.8.72-1.04,1.46-2.78,1.06-5.64,5.3-2.29,10.98-6.39,10.98-6.39,0,0-2.12,6.74-2.93,12.43-2.93.41-4.34,1.71-5.17,2.53-.12.12-1.86,2.39-4.65,6.09,8.2,11.84,17.68,35.96,17.26,79.05.06,3.44,1.69,41.75-10.55,67.07m-3.9-136.24c-4.9,1.13-8.39,1.08-10.29,1.03-1.32,2.82-2.38,5.45-2.29,10.27-1.96-.59-3.31-1.39-4.39-2.44-1.56,2.06-3.16,4.19-4.8,6.36,10.72,25.62,12.38,47.02,12.63,53.32,17.43-9.94,19.94-12.77,20.78-14.03-1.27-22.51-4.46-39.81-11.64-54.5m-23.74,66.49c-.3,2.5-.29,4.63.31,6.94,1.12-1.56,1.86-3.01,2.68-5.74,0,2.18.61,4.6,1.05,5.58,1.48-2.3,2.33-11.5,2.33-11.5,0,0,.05.23.81.51.8-3.29.36-10.05-.29-13.23-1.15-5.59-3.21-12.38-9.64-20.45-3.32-4.15-6.1-2.28-8.89.96-4.5,5.23-5.46,7.54-10.87,8.59-.54.1-.14.38.92.37,6.49-.12,8.52-4.7,10.46-7,1.29-1.52,2.95-2.9,4.34-2.04.52.32,2.29,2.52.46,7.92,0-1.24-.44-2.3-.68-2.58-.84,3.59-1.97,6.47-3.33,8.91-.18-.6-.3-1.15-.41-1.91-.64,4.38-4.32,8.92-4.84,15.17-.38-.67-.73-1.12-.75-2.72-2.78,5.46-5.65,15.24-3.87,20.15-.07-4.99,2.82-12.17,4.3-14.44-1.91,6.42-4.12,14.35-2.21,19.12.14-4.09,2.34-10.76,3.92-13.53-2.63,10.53-3.72,15.91-.78,19.97-.51-3.95,1-9.94,3.05-14.83-1.36,8.23-3.32,15.41.29,19.02-.53-5.38,1.4-12.55,2.45-15.08-1.15,7.77-2.17,15.28.03,19.19.05-1.26.17-2.65.38-4.22.88-6.54,2.18-10.55,2.18-10.55,0,0-.75,5.55-1.16,12.31-.4,6.58.7,9.65,1.44,10.94.66-8.96,1.63-16.71,2.75-20.3,0,0-.96,8.39-1.6,21.23-.97,19.54,1.47,25.69,2.22,27.5,0,0-.16-.35-.23-2.72-.06-1.99-.07-1.85.15-4.12.06-.65-1.55-4.05-1.32-8.61.63-12.84,2.21-25.44,3.56-31.31-.14,2.34-2.39,29.86-2.23,33.37.17,3.7,1.17,5.32,1.15,5.88-.19,7.19.48,10.1,1.65,12.81,0,0,.7-2.56,1.23-5.79-.11.2-.33.54-.67.65-.85-2.35-1.28-6.43-.72-10.65.1-.76-.94-1.71-.87-5.1.2-8.5,2.51-24.96,3.52-29.79.11.63-2.21,27.74-2.24,29.5-.05,3.55.84,4.62.79,5.27-.21,2.55-.12,7.3.22,8.48.32-1.05.51-3,.51-3,0,0,2.14-16.54,3.68-35.36.76-9.29,1.74-20.86,2.02-25.96-.11-.1-.2-.17-.2-.17,0,0-.85,9.86-3.32,13.33-.66-.65-1.47-4.34-1.41-5.57-.55,1.95-2.8,4.58-2.8,4.58,0,0-.78-1.94-.67-5.17-.75,1.16-1.41,2.06-2.55,2.7-.46-1.13-1.04-2.42-.95-5.63-.4.59-1.1,1.43-2.27,2.16-.29-.74-1.96-3.53,1.04-13.83-1.19,9.51-.48,10.61-.24,11.38.59-.27,1.18-.77,1.54-1.11.12-1.72.4-3.89.91-6.68-.44,7.57.12,9.94.67,11.41.7-.53,1.69-1.94,2.99-5.22m-24.08,14.97c0-.09,0-.19.06-.25,0,0,.05-.04.06-.05.05-.01.08-.02.08-.02.15,0,.33.1.67.31.18.12.41.26.7.42-.4-.88-.48-2.2-.58-3.7-.08-1.5-.19-3.2-.65-4.72,0,.01-.01.03-.02.05-.01-.04-.03-.09-.04-.13-.25.75-.78,1.44-1.33,2.15-.77,1.03-1.58,2.08-1.8,3.49l-.04.27-.22-.2c-.27-.25-.59-.58-.85-.95-.08-.12-.15-.23-.22-.35h0s-.04-.05-.06-.09c-.59,2.22-4.39,7.01-5.28,8.01h0c-.12.17-1.58,2.33-2.14,7.7-.53,5.06.01,8.19.01,8.19l1.35-1.47s.06,1.41-.11,3.04c-.13,1.27-.54,2.25-.54,2.25,0,0,2.66.45,4.73-2.05l.37.98c.33.97.59,2.12-.17,2.72-.12.1-1.41,1.23-1.24,2.33.06.39.27.76.75,1.08l.05.04v.06c.06.62.52.95.83,1.11-.11-.52-.05-.85.03-1.05.28-.72.79-.91,1.18-.94.3-.02.54.05.55.05l.07.02v.07s.31,3.02.59,4.28c.23,1.12.51,2.55.69,4.15.03.36.07.71.11,1.08.12,1.05.73,1.15,1.28,1.23.28.05,1,0,1.31-.02l.05.02-.07.03c-.8.22-.75.54-.72.64.09.47.37,1.05.08,2.03l.11.12c1.22-.66,1.2-1.78,1.08-2.76v-.08s.06-.05.06-.05c.92-.54.7-2.38-.62-5.18-.62-1.31-.87-3.51-.47-3.71.02-.02.05-.03.07-.03.22-.04.46,0,1.09.9.44.63.87,1.16,1.41,1.85.53.65.88,1.24.86,1.78,0,.2-.05.35-.16.43-.08.07-.21.1-.4.12-.27.02-.61-.02-.85-.06.3.31,1.41,1.58,1.75,1.19.83-.96.07.59,1.54.75.94.05,1.63-.59,1.66-1.74,0-.41-.06-.67-.12-1.02-.19-1.08-1.03-2.16-1.44-2.59l-.33-.35c-2.46-2.71-2.25-3.31-2.1-3.57.24-.42.46-.55,1.11-.57.95-.02,2,.12,2.06.14,1,.19,2.63.44,2.56.98,0,.08-.11.23-.25.29-.34.14-.91.34-.99.21.09.14.44.42.93.64.42.2,2.1.67,2.63-.12l.16-.35c.3,0,1.12-.14,1.3-.69.16-.53-.53-1.26-1.24-1.62-.58-.29-2.26-.96-3.65-1.37-.54-.16-1.24-.29-1.77-.45l-2.95-.77c-.08-.03-1.62-.52-2.2-.78-.29-.13-.51-.23-.63-.3-.5-.28-.87-.57-1.25-1.08-.33-.45-.64-1.67-1-2.97.36.2,1.25.81,2.34.96-.08-.44-.16-1.9-.09-2.66.46-4.88.56-7.69.56-7.69,0,0,.85.87.98,1.02.15-.84-.14-2.88-.3-4.93-.11-1.39-.52-3.7-.97-5.69m3.52,23.25l2.3.6c.33.1.7.19,1.1.27.39-1.1.59-2.23.54-3.35-.05-1.27,2.86,1.41,4.79,3.35.81.81.96.46.5-.18-1.94-2.65-5.76-5.16-6.85-5.83-1.84-1.15-2.77-.87-2.13.15.72,1.16.56,3.02-.24,4.97m2.51,19.01c2.08,2.48,5.37,7.15,6.63,8.4,2.71,2.72,3.87,3.02,5.95,3.14-.66-1.85-1.41-3.61-4.57-8.42-1.62-2.48-4.38-6.05-6.54-8.87h0c-.05.12-.1.22-.16.33-.2.34-.45.64-.78.88-.49.33-1.09.48-1.68.44-.61-.06-1.1-.29-1.45-.67-.36.03-.71-.07-1.05-.27.11,1.03-.07,1.82-.56,2.36,0,.63-.13,1.93-1.14,2.91.1.14.15.22.15.22.72,1.28.41,1.91.07,2.31-.3.36-3.76,4.19-4.53,4.89-.91.82-1.9-.11-1.9-.11l-.57-.47s-.88.89-1.59,1.6c.06.07.12.12.18.17h0c1.12,1.03,2.48,1.8,3.88,2.4,1.44.61,4.14,1.58,6.98,2.75,0,0,.01,0,.02.01-.63-1.51-1.5-3.77-2.27-6.52.8,1.14,3.02,4.97,4.42,7.45,0,0,.01,0,.02,0,.22.1,2.21,1.05,2.97,1.45.53.26,2.44,1.28,2.84,1.51-.14-1.22-.42-2.13-.42-2.13,0,0-1.74-1.72-2.92-3.33-2.41-3.3-3.95-6.73-4.71-9.03,2.72,3.92,3.41,5.02,4.49,6.4,3.42,4.4,7.07,6.32,8.47,6.35-.49-2.45-1.39-2.99-1.39-2.99,0,0-1.75-1.4-3.6-3.82-1.6-2.08-3.49-5.19-5.25-9.3m-8.92,23.7c4.88.61,15.3.47,19.06-.98-1.41-1.15-7.37-4.95-16.46-8.61-1.88-.81-4.31-1.68-5.95-2.87-1.01-.72-1.71-1.26-2.72-2.18-3-2.76-10.89-10.98-12.28-12.51l-5.24,4.83s13.87,13.54,17.37,15.44c4.46,2.42,17.25,5.32,17.25,5.32,0,0-9.81-.74-17.26-3.75-4.48-1.82-18.68-15.81-18.68-15.81l-3.43,3.18c1.76,1.94,5.56,6.21,11.75,11.24,4.32,3.51,9.53,5.81,16.59,6.69m-12.11-1.58c-.88-.43-1.75-.95-2.61-1.51h-.01l.78,1.6c.57,1.19,1.29,2.13,1.91,2.79.07-.12.14-.25.2-.38.29-.61.55-1.28.8-1.99-.27-.13-.72-.35-1.06-.52m-25.21-18.94c-.76,2.3-2.3,5.71-4.72,9.03-1.17,1.62-2.92,3.33-2.92,3.33,0,0-.17.57-.32,1.41.33-.18.67-.35,1.02-.51,1.59-.86,3.39-1.67,5.14-2.39,1.5-2.53,3.59-5.99,4.32-7.04-.7,2.5-1.55,4.64-2.24,6.2,2.35-.93,4.39-1.66,5.38-2.13,1.64-.73,2.38-1.37,3.03-1.84.12-.08.36-.3.66-.6.03.04-1.68-1.68-1.68-1.68l-.57.48s-.98.94-1.89.11c-.77-.7-4.23-4.54-4.53-4.89-.33-.4-.73-1.08.07-2.31.01-.01.02-.02.05-.05-1.09-.99-1.23-2.34-1.22-2.99-.49-.53-.68-1.33-.57-2.36-.34.21-.7.31-1.05.27-.36.38-.84.61-1.44.67-.11,0-.16,0-.21,0-.59,0-1.12-.17-1.54-.49-1.96,2.55-4.14,5.43-5.51,7.53-3.16,4.81-3.9,6.56-4.57,8.42,2.08-.12,3.25-.43,5.96-3.14,1.25-1.26,4.54-5.93,6.62-8.41-1.76,4.12-3.65,7.23-5.24,9.31-1.86,2.42-3.6,3.82-3.6,3.82,0,0-.91.55-1.4,2.99,1.41-.03,5.06-1.94,8.48-6.34,1.08-1.38,1.78-2.48,4.49-6.4m-3.38-14.07l-.32.35c-.41.42-1.24,1.5-1.44,2.59-.06.35-.12.61-.12,1.02.04,1.15.73,1.79,1.67,1.74,1.46-.16.71-1.71,1.54-.75.34.39,1.45-.88,1.75-1.19-.26.03-.59.08-.85.06-.19-.02-.31-.05-.4-.12-.1-.08-.17-.23-.17-.43,0-.53.34-1.13.87-1.78.55-.69.98-1.22,1.41-1.85.63-.91.86-.92,1.07-.9h.03l.06.03c.36.27.15,2.41-.48,3.71-1.32,2.81-1.54,4.64-.62,5.18l.07.05v.08c-.14.98-.15,2.09,1.06,2.76l.11-.12c-.29-.98-.02-1.55.07-2.03.02-.1.08-.42-.72-.64l-.07-.03.05-.02c.31.03,1.01.07,1.31.02.54-.08,1.15-.18,1.28-1.23.04-.36.07-.72.11-1.08.17-1.59.46-3.03.7-4.15.26-1.26.57-4.25.57-4.28l.02-.07.07-.02s.24-.07.55-.05c.37.03.9.22,1.17.94.08.2.14.53.03,1.05.31-.16.78-.49.83-1.11v-.06l.05-.04c.48-.33.7-.7.75-1.08.16-1.11-1.11-2.23-1.23-2.33-.77-.6-.52-1.74-.18-2.72l.44-1.17c.4.46.9.94,1.5,1.28,1.78,1.26,3.56.95,3.56.95,0,0-.41-.98-.54-2.25-.17-1.63-.11-3.04-.11-3.04l1.35,1.47s.8-2.68.28-7.75c-.6-5.86-1.84-8.15-2.1-8.97-.42-1.32-1.16-2.62-1.16-2.62,0,0-.12.7-1.07,1.52-1.13-1.41-3.13-4.19-3.63-6.08-.29.55-.76,1.04-1.13,1.39l-.22.2-.04-.27c-.23-1.41-1.02-2.46-1.8-3.49-.55-.72-1.08-1.4-1.33-2.15-.47,1.52-.57,3.21-.66,4.72-.09,1.49-.17,2.82-.58,3.7.28-.16.52-.3.7-.42.34-.21.51-.32.66-.31l.11.03.05.05c.07.07.07.16.06.25-.45,1.99-.85,4.3-.97,5.69-.16,2.04,0,3.83.16,4.67.13-.15,1.52-.88,1.52-.88,0,0-.91,2.93-.44,7.81.07.77,0,2.23-.09,2.66.92-.13,1.7-.58,2.14-.84-.36,1.29-.67,2.49-1,2.94-.37.51-.75.79-1.24,1.08-.13.07-.35.17-.64.3-.57.26-2.12.75-2.19.78l-2.96.77c-.52.16-1.1.28-1.66.4-1.07.23-3.17,1.13-3.76,1.43-.71.36-1.4,1.09-1.24,1.62.17.56.99.69,1.29.69l.18.35c.53.79,2.21.31,2.62.12.49-.23.83-.5.92-.64-.08.13-.64-.07-1-.21-.13-.05-.24-.2-.24-.29-.06-.53,1.57-.79,2.57-.98.06-.01,1.11-.15,2.06-.14.64.02.87.15,1.11.57.15.26.36.86-2.1,3.57m1.2-13.18c.63-1.02-.29-1.3-2.14-.15-1.09.67-4.91,3.18-6.84,5.84-.46.64-.32.99.5.17,1.92-1.94,4.83-4.62,4.78-3.35-.05,1.13.16,2.27.56,3.38.31-.07.6-.14.87-.22l2.52-.66c-.8-1.96-.98-3.83-.24-5m-3.87-39.65c1.5,2.27,4.38,9.45,4.3,14.44,1.79-4.91-1.09-14.7-3.86-20.15-.02,1.6-.36,2.05-.74,2.72-.53-6.25-4.21-10.79-4.85-15.17-.12.77-.24,1.31-.41,1.91-1.36-2.44-2.49-5.32-3.34-8.91-.23.28-.67,1.35-.67,2.58-1.83-5.41-.07-7.6.45-7.92,1.39-.86,3.05.51,4.34,2.04,1.94,2.3,3.97,6.88,10.46,7,1.06.02,1.47-.26.93-.37-5.41-1.05-6.37-3.36-10.87-8.59-2.8-3.24-5.58-5.11-8.89-.96-6.44,8.07-8.5,14.85-9.64,20.45-.66,3.18-1.1,9.93-.3,13.23.76-.29.81-.51.81-.51,0,0,.85,9.21,2.33,11.5.43-.98,1.04-3.4,1.04-5.58.83,2.73,1.56,4.18,2.68,5.74.61-2.31.61-4.44.31-6.94,1.3,3.29,2.29,4.69,2.99,5.22.55-1.47,1.1-3.84.66-11.41.52,2.8.8,4.96.91,6.68.37.34.97.83,1.55,1.11.24-.77.94-1.87-.24-11.38,2.99,10.29,1.33,13.08,1.03,13.83-1.17-.73-1.87-1.57-2.26-2.16.07,3.2-.49,4.5-.96,5.63-1.14-.64-1.79-1.54-2.54-2.7.09,3.23-.68,5.17-.68,5.17,0,0-2.25-2.63-2.8-4.58.05,1.24-.75,4.92-1.41,5.57-2.47-3.47-3.33-13.33-3.33-13.33,0,0-.08.07-.2.17.28,5.1,1.27,16.67,2.03,25.96,1.55,18.82,3.69,35.36,3.69,35.36,0,0,.19,1.95.51,3,.34-1.17.43-5.92.22-8.48-.05-.65.84-1.72.79-5.27-.03-1.77-2.35-28.87-2.23-29.5,1,4.83,3.33,21.29,3.52,29.79.07,3.39-.97,4.34-.88,5.1.58,4.22.14,8.3-.72,10.65-.33-.11-.56-.46-.67-.65.54,3.23,1.23,5.79,1.23,5.79,1.18-2.7,1.86-5.62,1.66-12.81-.02-.56.98-2.19,1.15-5.88.16-3.52-2.09-31.04-2.23-33.37,1.36,5.87,2.94,18.47,3.57,31.31.23,4.57-1.39,7.96-1.32,8.61.22,2.28.2,2.14.15,4.12-.07,2.37-.23,2.72-.23,2.72.75-1.81,3.19-7.96,2.22-27.5-.63-12.84-1.59-21.23-1.59-21.23,1.12,3.59,2.09,11.33,2.75,20.3.74-1.29,1.84-4.36,1.44-10.94-.4-6.76-1.16-12.31-1.16-12.31,0,0,1.3,4.01,2.19,10.55.2,1.57.33,2.96.38,4.22,2.21-3.91,1.19-11.42.03-19.19,1.05,2.53,2.98,9.7,2.45,15.08,3.61-3.61,1.65-10.79.28-19.02,2.06,4.9,3.57,10.89,3.06,14.83,2.93-4.07,1.84-9.44-.79-19.97,1.59,2.78,3.79,9.45,3.92,13.53,1.92-4.77-.31-12.7-2.21-19.12m70.88-50.97c-12.87-12.69-31.28-13.56-36.06-13.22-1.14.08-2.42.98-1,2.84-1.05.47-4.97.12-6.44-1.26-1.48,1.38-5.41,1.73-6.45,1.26,1.43-1.86.15-2.76-.99-2.84-4.84-.35-24.2,1.53-35.9,12.94,6.46,8.52,19.91,26.32,20.19,26.67.26.34.92.78,1.74.78.11,0,.21,0,.32,0,.7-.03,1.36-.51,2.07-1.29,1.4-1.52,2.09-2.37,3.46-3.78,2.64-2.7,5.14-4.76,5.56-5.15,1.11-1.04,1.48-1.86,1.51-2.71-.07-.98-.84-1.36-1.31-1.95-.03.08-.17.25-.24.34-.43-.34-.93-1.84-.93-1.84l-.25.69s-.99-2.39-2.56-2.17c-2.16.29-3.55-.64-3.71-.69-.13-.04-.22.69-.17,1.53-.03,0-.06-.02-.08-.04-1.48-1.25-1.92-4.49.92-6.57,1.75-1.28,2.08-1.24,3.42-1.88.57-.27,1.01-.82,1.14-.98.91-1.11,2.73-1.73,3.77-2.01,1.32-.35,4.43-.79,7.54-.61,1.75.1,3.41.5,4.58.98.93.37,3.6,2.34,5.08,4.28.97,1.28,2.64,4.89,3.58,7.18,1.97,4.8,1.74,4.28,3.07,7.46,1.52,3.63,2.44,5.66,3.9,7.7.5.7,1.05.98,2.03,1.03.74.04,1.47-.1,2.11-.5.58-.36.71-.58.89-.84,4.53-6.55,12.93-17.08,19.21-25.39m-35.44,76.36s1.71-1.63,2.34-6.99c.33.41.94.8,1.11,1.56,1.08-1.32,3.24-8.51,3.47-10.96.72.31.08.15.89.56.59-1.05,1.82-5.14,2.36-10.81.27.08.73.08.92.31.38-2.59.75-6.76.87-9.67.1-2.5.03-7.67-1.04-10.62-1.08-2.95-1.57-4.53-3.29-7.25,0,0-.61.3-.92.72-.47-1.43-1.77-4.89-2.42-6.14-1.63-3.17-2.4-5.22-4.1-6.28.78.04,1.06.22,2.04.17-1.11-1.04-1.52-1.75-2.77-2.71.41-.27,1.12-.25,2.3-.04-1.67-1.52-2.24-3.84-6.54-5.47.76-.14,1.36.12,2.38.08-.54-.84-1.84-2.23-4-2.87-4.4-.87-10.47-1-13.32,2.35-.19.24-.96.4-1.65.65-.48.17-.69.32-.81.42-.49.36-.58.85.36,2.21-1.24-.18-1.55-1.37-1.77-1.24-.45.29-.85.66-1.31,1.33-.41.62-.78,1.92-.68,2.48.14.12,1.18.59,1.38-.63.08-.42,2-.6,2.67-.6.96,0,1.86.23,3.07.17-.43.16-1.79.55-2.28.69-.54.16-.59.74-.08.77.56.07.81-.18,1.35-.31.24.15-.01.75.2,1.11,3.55-.82,3.81,3,7.59,2.25-1.79-1.39-3.3-3.72-4.7-4.42,3.73.58,5.75,3.93,9.78,4.1-.09-.25-.26-.61-.49-1.08,1.37,0,2.36,1.06,2.77,1.02-.52.56-1.67,1-3.22,1.21.27.51,1.79.61,2.29.71-.81.73-1.75,1.09-3.56.73-.59.55-1.4,1.82-4.03,3.41.03-.43.07-.84.14-1.24-1.73,1-2.87,2.83-4.17,3.33.39-.64.71-1.76.99-2.33-4.54,4.11-8.89,8.07-10.52,11.04-1.83,3.32-2.4,6.76-2.17,12.41.18,3.03,1.47,11.62,1.7,13.3.36-.16.63-.3.93-.41,1.09,6.29,4.36,15.13,6.06,18.01.31-.7.5-.99,1-1.34.27,1.69,1.15,3.6,2.55,4.82-.04-1.13.46-1.8.57-2.19.39,1.22.16,5.01,2.33,7.1-.12-1.04.25-1.92.56-3.32.36,1.2.45,2.74,1.04,3.96.68,1.44,1.53,2.87,2.31,3.24-.09-2.98.37-2.83.47-4.06.05.26,1.18,1.34,1.73,5.1,2.21-1.69,3.06-7.26,3.06-7.24,0-.01.63.55,1.1,2.09,1.92-2.01,2.51-4.66,3.08-6.66.2,1.41.25,2.79.08,3.47m2.22,29.42c2.67-.03,3.35.01,4.39-.17-.07-.31-.13-.6-.17-.84-.03-.2-.06-.41-.08-.63-.02,0-.04.01-.06.02-.92.21-2.66.74-5.02.32-1.13-.23-1.18-.26-2.06-.51-.8-.23-2.08,1.09-3.07,2.14-.85.9-1.96,2.18-2.47,2.7-.08.08-.07.19.02.27.91.82,11.85,10.83,12.53,11.45.18.15.29.17.51-.05.49-.5,1.21-1.27,1.91-1.98,0,0-10.82-10.17-10.98-10.34-.17-.16-.2-.38-.11-.47.07-.09.55-.58.63-.67.08-.1.33-.11.49.07.16.18,3.55,3.33,3.55,3.33l4.66,4.15,2.93,2.6c.41-.43.37-.34.48-.48.44-.48.33-.8-1.16-2.24-.42-.41-7.58-7.56-7.58-7.56-.73-.84-.19-1.11.66-1.12m-16.88,2.3c-.16.16-10.98,10.34-10.98,10.34.7.7,1.42,1.48,1.91,1.97.22.22.34.2.51.04.68-.62,11.62-10.62,12.53-11.44.1-.08.11-.18.03-.27-.51-.52-1.62-1.8-2.47-2.7-.99-1.05-2.26-2.37-3.06-2.14-.88.26-.93.28-2.06.51-2.36.42-4.1-.11-5.02-.32-.08-.02-.16-.05-.24-.07-.02.27-.06.52-.09.77-.03.22-.08.46-.15.72,1.14.23,1.75.18,4.55.21.85,0,1.4.28.65,1.12,0,0-7.16,7.16-7.57,7.57-1.5,1.41-1.59,1.76-1.15,2.24.11.13.06.04.48.47l2.92-2.6,4.66-4.15s3.39-3.15,3.54-3.33c.16-.18.41-.16.5-.07.08.1.55.57.63.67.08.09.06.3-.12.47m1.06-25.55s.01-.64-.4-1.47c-.21-.44-.93-.99-1.28-1.4-.29-.36-.33-.56-.33-.56-.08.41.1,1.39.23,1.79.12.45.43.91.93,1.23.54.35.85.42.85.42m-.11,20.79s.8.77.95.93c.17-1.12.71-4.83.5-5.19-1.26,2.4-1.43,4.04-1.45,4.26m-4.36-.26c.41-.15,1.45-.61,2-.76.13-.03.35-.08.42-.08h0c.32-1.11.84-2.83,1.2-3.62-.32-.09-3.07,3.7-3.62,4.46m8.05,4c-.05-1.48-.12-3.08-.22-3.79-.46.67-.77,1.65-.97,2.56.12.12,1.07,1.11,1.19,1.23m.72-9.79s-.27-1.88-1.67-2.5c.06,1.36,1.67,2.5,1.67,2.5m1.11-3.12s0-.02.02-.05c0,.02,0,.03,0,.05,0,0,.22-.51,1-1.09.5-.38,3.58-2.21,4.16-3.02.59-.81.84-1.91.84-1.91,0,0-.55.88-1.77,1.58-1.03.59-3.44,2.09-3.87,2.83-.22.38-.31.68-.34.94-.02-.21-.07-.44-.2-.71-.74-1.56-2.96-2.18-4.29-3.72-.87-1-.91-1.41-.91-1.41-.03,1.04.17,1.81.59,2.38.37.51,1.49,1.47,2.96,2.44,1.5.99,1.8,1.7,1.8,1.7m-1.44-5.54c0-2.43-2.66-2.72-3.28-5.13-.31,3.4,2.05,3.45,3.28,5.13m1.23,9.69s.34-.13,1.11-.6c.69-.41,1.26-.87,1.61-1.52.36-.69.29-1.29.24-1.69,0,0-.16.64-1.05,1.45-.38.36-.91.87-1.21,1.25-.47.58-.7,1.1-.7,1.1m2.33,1.44c.25,1.46.44,4.85.49,5.95,0,0,0,0,0-.01.39-.39.81-.82,1.22-1.23-.08-.51-.56-3.21-1.71-4.7m-2.18,8.86c.06-.07.88-1.05,1.3-1.49.02-.03.05-.05.07-.07-.25-1.87-.68-4.21-1.3-5.1-.13.88-.11,4.17-.07,6.66m.02,1c.01.81.03,1.45.03,1.77.07-.08.85-.91.85-.91,0,0-.67-.59-.89-.85m.57,2.9c1.52,1.6,3.56,3.73,4.9,5.04.88-.85,1.42-1.37,1.42-1.37l-5.25-4.82c-.22.24-.59.63-1.08,1.15m6.2,6.28c1.14,1.11,2.39,2.39,3.4,3.39.59-.64,1.08-1.19,1.47-1.61l-3.43-3.18s-.54.53-1.44,1.4m1.02-16.22c-.54-.73-2-2.65-3.26-3.78.85,2.02,1.23,3.3,1.37,3.79h0c.07-.05.14-.08.2-.12.2-.1.44-.16.67-.15.21.01.44.07.72.16,0,0,.19.07.29.1m-1.26-19.74c-.69,1.09-1.25,1.71-2.1,2.47.28-.8.34-1.67.34-1.69-.41.83-1.39,2.02-2.02,2.66-1.57,1.55-1.86,3.07-1.86,3.07,0,0,.42-.55,2.3-1.67,1.99-1.17,2.72-2.97,3.34-4.83m-24.48-21.2c0,1.9,1.34,4.54,3.15,5.58-1.08-2.91-1.92-3.85-3.15-5.58m62.57-62.88c.45-.58.88-1.16,1.31-1.73-5.88-5.2-14.61-10.46-24.18-12.53-6.48-1.4-11.64-1.52-14.89-1.47-2.67.03-4.39,1.06-4.39,2.73-1.65-.3-2.11-2.39-2.31-2.78-.16.88-.97,2.57-2.3,2.78,0-1.67-1.72-2.7-4.39-2.73-3.25-.05-8.41.07-14.89,1.47-9.76,2.12-18.17,6.91-24.05,12.19.42.57.86,1.15,1.3,1.72,5.27-4.97,12.31-8.9,19.81-11.09,6.22-1.82,13.86-2.47,17.38-2.31,3.13.14,3.58,1.92,3.21,2.89,1.4.14,3.49-1.07,3.93-1.89.33.62,2.23,2.01,3.94,1.89-.37-.97.08-2.75,3.21-2.89,3.51-.16,11.16.49,17.36,2.31,7.33,2.14,14.68,6.58,19.94,11.43m3.52-6.35c.65,2.29,1.36,4.85,3.29,6.39.27.21.55.4.88.57l.04.03c-.04-4.39,1.44-6.76,2.59-9.34h0s0-.01.01-.02c1.64.23,3.76.84,8.14.05-4.14-2.79-3.24-5.91-6.31-9.34-.33-.37-.7-.73-1.13-1.11-1.1-.78-1.91-1.05-2.51-1.07-.76-.02-1.18.37-1.41.62-.4.44-4.71,5.07-7.54,8.25,2.53-.06,3.21,2.27,3.96,4.95m2.83-15.32c-2.89-2.85-7.49-6-12.98-8.41-14.37-6.31-32.61-6.34-37.82-6.34,0,0,0,0,0-.01-.01,0-.02.01-.02.01-5.21,0-23.44.03-37.82,6.34-5.51,2.41-10.1,5.57-12.98,8.41,0,0,6.51,7.3,8.19,9.27.89,1.04,1.17,1.91.66,3.47,9.99-6.7,21.34-10.04,41.57-10.17h.91c19.89.18,31.57,3.54,41.45,10.17-.5-1.56-.23-2.42.66-3.47,1.69-1.97,8.19-9.27,8.19-9.27m-102.36,2.13s-.01-.01-.01-.02c-.4-.44-1.43-1.34-3.93.45-4.45,3.85-3.02,7.35-7.6,10.44,1.64.29,2.96.4,4.06.4.73,0,1.37-.05,1.94-.11.85-.1,1.53-.24,2.14-.33h.01c1.15,2.57,2.61,4.93,2.57,9.31,5.36-2.84,3.17-12,8.16-11.9-2.82-3.15-6.89-7.74-7.35-8.25m3.47,18.47c3.93,5.23,6.89,9.18,7.49,9.98,1.36,1.87,6.08,7.52,6.04,6.79-.03-.43-2.9-4.43-4.72-6.91-2.65-3.58-5.42-7.3-8.12-10.91-.25.38-.48.72-.68,1.03m20.04,34.69c0,3.71.7,6.42,1.9,10.94.13-4.78-.79-9.64-1.9-10.94m-2.47-4.19c-.25,1.71-.22,3.85.16,5.46.26,1.11.76,2.16,1.15,3.14.17-3.33-.65-6.94-1.32-8.61m9.21,32.4c.61-2.04,1.32-15.1-3.55-20.74,1.26,5.06,2.85,10.97,3.55,20.74m-14.62,76.93c3.75,1.45,14.18,1.59,19.05.99,6.22-.78,11.01-2.66,15-5.49-1.04-.89-2.31-2.07-3.64-3.32-2.09,1.69-3.95,3.02-5.14,3.51-7.46,3.01-17.26,3.75-17.26,3.75,0,0,12.79-2.9,17.24-5.32.85-.46,2.29-1.59,3.99-3.05-1.65-1.58-3.28-3.18-4.49-4.4-.81.74-1.47,1.23-2.35,1.87-1.64,1.18-4.07,2.04-5.95,2.85-9.1,3.65-15.06,7.46-16.46,8.61m31.25-.64s.22.76.49,1.33c.06.13.58,1.31.65,1.43.61-.66,1.31-1.57,1.88-2.72l1.31-2.69s-.04-.03-.05-.05c-.08.07-.8.59-1.19.85-.57.38-1.14.74-1.72,1.08-.23.13-1.08.6-1.27.7-.04.02-.07.04-.11.06m25.42-76.28c.7-9.77,2.29-15.68,3.54-20.74-4.85,5.63-4.15,18.7-3.54,20.74m1.17-21.75c1.54-4.61.24-6.95-.66-7.42-.03,2.12.54,3.12.66,7.42m3.92,4.65c1.19-4.52,1.89-7.23,1.89-10.94-1.1,1.3-2.03,6.16-1.89,10.94m3.04-6.52c.39-.99.89-2.03,1.15-3.14.38-1.62.42-3.75.16-5.47-.67,1.67-1.49,5.28-1.32,8.61m12.32-29.6c.55-.77,3.28-4.4,6.94-9.26-.26-.31-.53-.65-.72-.98-2.52,3.36-5.09,6.81-7.54,10.14-1.83,2.47-4.7,6.48-4.72,6.91-.05.72,4.67-4.92,6.04-6.8m21.13-24.22c-.42.55-1.32,1.75-1.32,1.75,1.13,2.06,2.35,4.2,5.58,5.89-1.28-2.62-2.71-5.17-4.27-7.64m-3-1.77c.09.15.5.87.61,1.04,7.45-9.91,14.27-18.96,14.27-18.96,0,0-2.87,2.04-7.03,3.98.41,2.23-1,5.03-1.54,5.71-.22.28-2.68,3.48-6.3,8.23m-96.02-25.93h0c-.63.34-1.24,1.24-1.24,2.26-1.49,1.52-2.33,3.65-1.48,6.17-7.82,3.23-14.77,8.19-19.95,14.66.36.46.73.96,1.11,1.48,5.55-7.12,12.96-12.2,21.91-15.56-.71-1.05-1.71-3.39.91-5.94,0,0,.01,0,.02,0,3.86.48,4.83,2.82,5.07,4.03,6.97-1.89,15.23-3.04,24.45-3.38.32-6.36,4.83-7.89,4.83-7.89,0,0,.08-1.2,1.05-1.61,0,0,.02,0,.02,0,.97.42,1.05,1.61,1.05,1.61,0,0,4.51,1.53,4.84,7.89,9.22.33,17.47,1.49,24.45,3.38.24-1.21,1.2-3.54,5.07-4.03,0,0,.01,0,.02,0,2.61,2.55,1.61,4.89.9,5.94,8.95,3.37,16.59,8.64,22.15,15.76.4-.53.78-1.03,1.15-1.52-5.19-6.42-12.46-11.61-20.23-14.81.84-2.52.01-4.65-1.48-6.17,0-1.02-.59-1.9-1.24-2.24,0-.01-.01-.01-.01-.01-.74-.09-1.86.25-2.61,1.03-2.25.33-4.45,1.49-5.66,3.88-5.76-1.39-12.27-2.32-20.57-2.75-.2-3.81-2.42-6.18-5.14-7.53-.57-1.34-1.72-2.08-2.7-2.32-.98.24-2.14.98-2.7,2.32-2.73,1.35-4.95,3.71-5.14,7.53-8.31.43-14.81,1.36-20.57,2.75-1.2-2.38-3.41-3.55-5.66-3.88-.75-.78-1.87-1.13-2.61-1.04m-23.12,26.64c.23-.41.45-.74.64-.98-3.38-4.43-5.66-7.4-5.88-7.66-.54-.68-1.95-3.48-1.53-5.71-4.16-1.94-7.03-3.98-7.03-3.98,0,0,6.53,8.68,13.8,18.34m-6.95,8.81c.63-.37,2.76-1.71,4.09-3.56.67-.94,1.17-1.84,1.58-2.68-.05-.07-1.41-1.82-1.41-1.82-1.55,2.61-2.96,5.3-4.26,8.06m-11.68,54.39c.84,1.27,3.34,4.09,20.78,14.04.24-6.33,1.91-27.86,12.74-53.6-1.55-2.06-3.08-4.08-4.56-6.05-1.13,1.17-2.54,1.99-4.65,2.62.08-4.82-.97-7.45-2.3-10.27-1.93.05-5.21.13-10.39-.98-6.87,14.7-10.36,31.78-11.62,54.25m62.09,103.15l.08-.22c.51-1.41,3.57-8.64,3.57-8.64-.14.02-.25.05-.37.07-1.37.24-2.77.44-4.16.59-.81.08-12.93,1.95-21.71-2.18,1.29-.91,3.95-3.12,7.58-5.25.05-.37.12-.74.19-1.1-2.01,1.08-3.94,1.26-5.42,1.21-.12-1.26.23-2.9.91-4.76-1.92.41-3.38-.04-3.38-.04,0,0,1.26-3.88,4-8.54,2.13-3.64,4.97-7.31,7.64-10.55-.16-.36-.27-.77-.27-1.21,0-.52.08-.94.14-1.25.29-1.63,1.58-3,1.73-3.16.08-.08.46-.49.53-.57-.36-.32-.71-.6-1.04-.85-.35.38-.63.56-.86.66-1.02.46-1.63.63-2.17.65-1.12.04-1.76-.18-2.16-.74l-.07-.13c-.83-.23-1.39-.71-1.59-1.37-.05-.14-.06-.28-.06-.42-.61.21-1.05.25-1.6-.22-.79-.67.3-4.06,4-7.57,2.59-2.46,5.04-3.88,7.29-4.88,1.74-.77,2.77.73,1.92,1.76-1.03,1.22-1.82,3.39-.78,5.66,1.06-.35,1.48-.53,1.64-.59.41-.16.91-.3,1.46-1.02.05-.07.11-.2.18-.38l-1.55.18c.79-1.94-.42-6.7.37-9.78-.2.14-.75.51-1.05.61-.57-2.81-.49-7.26-.27-9.42-.04-.59-.91-1.65-2.07-2.81-.84,1.56-2.16,3.24-4.17,5.88-1.78,2.33-5,4.45-6.65,11.96,0,.02-.01.03-.02.05-.08.3-.14.59-.23.88h0c-.1.32-.2.64-.31.96-.07.2-.15.4-.23.61-.12.33-.26.65-.4.97-1.08,2.37-1.01,3.75-1.01,3.75v-.03c.11,4.74-.09,14.53-1.18,20.01-.95,4.81-2.55,7.25-2.55,7.25l-.25-.23c-.42,1.63-1.14,4.49-2.9,6.75,0,0-1.51-3.2-4.25-27.64-3-26.89-4.53-54.96-4.53-54.96h0c-.28-4.96.68-10.8,2.11-15.02,2.32-6.83,6.71-13.33,9.32-16.05.7-.72,1.55-1.34,2.52-1.62,0,0,.58-.15.87-.18h.01c-1.91-2.53-3.82-5.07-5.7-7.57-11.84,29.23-11.98,52.49-11.98,52.73l-.12,2.77-2.35-1.35c-13.29-7.33-17.54-10.43-20.94-13.4-.14,2.89-.42,12.39-.42,12.39-.02.17,0,2.23,0,5.97,0,11.39,2.04,39.36,11.33,58.58,1.3,2.4,4.77,8.82,11.04,14.7,4.76,4.49,10.31,7.67,16.47,9.65.36.11,1.07.36,1.43.47,7.11,2.25,14.83,1.79,22.43-2.01m-.53,7.91c1.41-1.18,3.62-2.05,6.37-.9.23-4.47.98-10.62,1.86-14.98-.23.19-.72.55-.91.69-.18.14-.57.39-.72.45-.03.01-.05.01-.06.01s-.03,0-.05-.02c-.07-.04-.27-.3-.3-.37-.98,2.35-6.14,15.01-6.18,15.11m26.99,2.46c.18-3.97-1.69-15.62-2.5-20.38h0c-.28-.1-.56-.2-.84-.31-.23.64-.49,1.32-.8,1.97-.58,1.21-1.49,2.48-1.66,2.46-.15-.02-2.58-1.65-4.12-4.87-1.55,3.16-3.94,4.77-4.09,4.79-.18.01-1.08-1.25-1.67-2.47-.32-.68-.59-1.37-.83-2.04-.03.05-.06.09-.1.14-.75,4.88-2.5,16.75-2.33,20.72-5.26-3.48-8.45,0-7.37,2.42.11.21.23.4.35.57.64.84,1.46,1.29,2.62,1.39,1.7.11,3.94.28,6.48,1.48,2.33,1.09,4.84,2.9,7.39,6.08,2.55-3.19,5.06-5,7.38-6.08,2.55-1.19,4.8-1.37,6.5-1.48,1.15-.09,1.96-.62,2.6-1.39.14-.16.25-.36.36-.57,1.09-2.43-2.11-5.91-7.38-2.42m8.06-2.46c-.04-.1-5.53-13.6-6.14-15.06,0,.01,0,.02-.02.02-.06.1-.15.22-.24.28-.03.02-.05.03-.07.03,0,0-.03,0-.07-.03-.27-.12-1.06-.61-2.01-1.49,1.02,3.88,1.92,10.19,2.17,15.34,2.75-1.14,4.96-.28,6.38.9m60.79-95.03c-.06-3.83-.29-9.54-.43-12.44-3.39,2.97-7.64,6.07-20.94,13.4l-2.35,1.35-.11-2.77c0-.23-.15-23.34-11.87-52.43-1.83,2.42-3.68,4.87-5.51,7.32.03,0,.07.02.11.03.15.04.31.09.45.14.89.34,1.67.87,2.33,1.58,2.6,2.71,6.85,9.26,9.31,16.04,1.34,4.25,2.39,10.06,2.11,15.03h0s-1.52,28.07-4.54,54.96c-2.74,24.44-4.24,27.64-4.24,27.64-1.75-2.25-2.48-5.11-2.89-6.74l-.26.23s-1.6-2.44-2.56-7.25c-1.09-5.48-1.28-15.28-1.17-20.01v.03s.07-1.39-1.01-3.75c-.5-1.12-.9-2.23-1.17-3.42-.01-.01-.02-.03-.03-.06-1.65-7.51-4.88-9.63-6.65-11.95-2.23-2.92-3.61-4.67-4.41-6.38-1.3,1.24-2.32,2.52-2.37,3.22.45,4.53.86,7.76.19,10.06-.28-.15-.7-.59-.95-.77.3,3-1.11,6.47-.21,9.22l-1.78-.23c.08.2.15.36.2.44.25.33.48.53.9.77.08.04.44.21.58.27.16.08.59.25,1.82.64,1.03-2.26.24-4.42-.78-5.65-.85-1.02.18-2.52,1.92-1.75,2.25,1,4.7,2.42,7.29,4.87,3.7,3.52,4.79,6.91,4,7.58-.61.52-1.07.41-1.79.16,0,.13-.02.26-.06.4-.2.66-.76,1.14-1.59,1.37l-.08.13c-.4.55-1.04.76-2.16.74-.96-.03-2.02-.58-2.17-.65-.19-.1-.44-.25-.73-.53-.33.25-.68.53-1.04.86.03.03.4.44.4.44.24.24,1.44,1.56,1.73,3.15,0,0,.08.49.1.73,3.07,3.65,6.67,8.08,9.24,12.47,2.73,4.65,3.99,8.54,3.99,8.54,0,0-1.45.45-3.37.04.68,1.86,1.04,3.5.91,4.75-1.47.05-3.41-.12-5.42-1.2.13.63.23,1.27.31,1.9,2.73,1.77,4.75,3.42,5.83,4.18-8.79,4.12-21.52,2.23-21.78,2.2-.74-.1-1.39-.2-1.95-.28,0,0-.38-.09-.4-.09,0,0,3.13,7.45,3.71,8.67,5.58,2.55,10.78,4.23,18.78,2.9,0,0,1.36-.13,4.78-1.28,3.5-1.17,10.07-5.02,15.1-9.75,6.27-5.89,10.08-12.09,11.32-14.51,9.73-19.01,11.33-47.19,11.33-58.58,0-3.73.01-5.75.01-5.92m-69.94-7.83s3.92-3.76,3.79-8.46c-1.11,3.16-3.77,4.49-3.79,4.49,0,0-1.48-.92-2.14-2.97-.52,4.76,2.18,6.97,2.14,6.94m-7.86-30.79c-2.33,2.52-.9,4.63-.89,4.61,0-.03,2.83-3.06.89-4.61m-.85,8.63c-2.61,3.9,0,7.96-.01,7.95-.02-.03,1.79-5.43.01-7.95m-6.21-5.61c-3.81,2.87-2,5.55-1.33,7.03.79-2.8,1.1-3.56,1.33-7.03m.92,35.41c-.49-.12-2.78-2.26-3.47-3.6.36,2.14,3.29,6.36,4.7,7.22.46-.77,2.18-4.17.67-9.6-.64,3.29-1.31,4.94-1.9,5.98m-2.83-26.66c-2.57,3.21,1.39,7.2,1.38,7.25-.02-.03.32-6.07-1.38-7.25m4.14,16.99c.65-1.43,2.5-4.16,1.54-8.7-.34,3.41-2.52,4.93-2.51,4.93,0,0-1.23-.68-2.21-2.74.32,4.17,1.88,5.37,3.17,6.51m-1.98,21.45c-.38-1.23-1.05-5.36-2.62-7.14-.63,3,1.32,5.87,2.62,7.14m47.73-99.4c-1.15-.34-2.34-.65-2.73-1.22.5-.41,1.21.15,1.57.45.25-.25.39-.35.69-.63-1.2-.98-3.09-.4-3.51.61.34.18.88.37,1.06.61-.4.12-1.13.52-1.45.74,1.86-.15,3.57.3,4.36-.55m-3.2,1.57c-1.36.61-1.59.97-2.23,2.43-.75,1.76-1.4,3.52-2.27,5.1.51.21,1.22-.23,1.71-.53,2.29-1.41,3.94-5.28,4.85-7.6.02-.08-1.35.28-2.06.59m-4.08,1.45c-.38,1.27-1.32,2.04-1.9,2.82-3.2-1.24-10.28-3.04-14.18-3.43-1.05,1.16-2.62,2.7-4.28,3.1-2.42-.29-3.98-.93-5.66-1.64.93.06,1.22.05,1.87.04,2.39-.07,4.52-.82,6.06-1.77-3.38-.52-4.18-1.44-2.55-3.6.76-.98,1.99-2.75,3.78-2.29,1.4.36,1.76,2.36,1.6,3.87,3.95.49,9.01,1.84,12.86,3.17.25-1.11-.45-1.65-.92-2.45.59-.61,1.45-1.33,2.13-1.78.98.55,1.54,2.73,1.18,3.97m-18.69-5.03c-.06.01-.67.37-1.01,1.06.3.47.9.66,1.81.79.12.02.35.03.49.05.42-.98-.47-2.19-1.28-1.9m5.28,5.62c-.72.36-1.58.88-2.13,1.21.58.58,1,1.02,1.62,1.63.86-.47,1.25-.69,2.21-1.18-.63-.62-1.04-1.05-1.7-1.66m-14.97-12.08c-.72-.53-1.19-.91-1.95-1.43-.66.44-1.41,1.07-1.9,1.46.66.5,1.15.88,1.87,1.4.77-.57,1.12-.84,1.99-1.44m-32.55,14.47c.79.34,1.36.61,2.21.97.59-.71.86-1.05,1.53-1.81-.85-.37-1.41-.64-2.29-.98-.52.57-1.08,1.34-1.45,1.82m35.61-5.07c-9.37-.52-27.7.46-36.71,2.93,0,0-.95-2.33-1.75-3.18-2.4-2.57-3.38.22-3.39.55,3.02.17,3.54,1.72,3.54,1.72-.71,1.31-1.26,1.74-2.91,2.89-.54.37-2.47,1.57-5.14,1.79-5.67.28-4.12-5.63-.69-8.04-.45.54-2.47,3.63-1.22,5.21,1.43,1.77,6.65.33,7.92-1.26-.71-.66-1.97-.84-3.84-.68.09-.93.5-3.34,3.24-5.64.99.23,3.75,1.71,4.71,4.08,8.28-2.22,23.45-2.85,24.18-2.88-.17-1.44-.68-6.86-.7-7.19-.08-.9.51-1.3,1.09-1.66.63,1.11,1.21,1.6,2.61,2.12-.54.65-1.06.93-1.68,1.43.09,1.08.18,3.07.22,3.86,1.34-.58,3.24-1.38,5.53-1.91.81-.19,1.85-.31,2.5-.23.81.1,1.75.51,2.21.93.39.35.89.95.89,1.73.01,1.33-.25,2.5-.6,3.43m-1.94-3.53c-1.17-1.91-5.51-.18-8.27.96,1.6-.02,2.96-.07,4.67-.03.7.01,2.49.02,3.7.07.1-.35.15-.59-.1-.99m-39.08,10.14c-.54-.17-1.03-.33-1.67-.5-.43.62-.89,1.44-1.18,1.96.83.25,1.44.46,2.33.73.35-.56.57-.9.86-1.36.53.17,1.01.33,1.64.52.49-.77.7-1.14,1.27-1.96-.89-.28-1.49-.49-2.4-.73-.29.41-.58.9-.83,1.33"/></g></svg>