<?xml version="1.0" encoding="UTF-8"?><svg id="Layer_1" xmlns="http://www.w3.org/2000/svg" viewBox="0 0 2591 458"><defs><style>.cls-1{stroke-width:0px;}</style></defs><g id="Artboard"><g id="path_Lockup_white"><path id="Path" class="cls-1" d="M319.42,163.79C319.42,74.89,254.19,3,162.09,3S4,75.67,4,163.79v292.21h79.81v-166.2c23.79,24,56,37.1,89.79,35.56,15.35,0,30.7-2.32,44.52-7.73v-90.45c-13.86,16.1-34.01,25.41-55.26,25.51-43.74,0-79.05-39.42-79.05-88.9s35.31-86.58,79.05-86.58,79,37.11,79,86.58c.76,23.19-7.68,45.61-23,63.39h90.56v90.45h90.58v-90.45h-90.56c6.14-20.1,10.75-41.74,9.98-63.39Z"/><path id="Shape" class="cls-1" d="M654.06,60h-78.06v256h44.49v-90.49h35.13c58.54,0,105.38-16.24,105.38-82-.78-71.91-52.3-83.51-106.94-83.51ZM656.4,188.39h-35.91v-89.72h34.35c30.44,0,60.89,3.87,60.89,45.63-.78,37.13-26.54,44.09-59.33,44.09h0Z"/><path id="Shape-2" class="cls-1" d="M917.43,196.07c0-52.86-22.76-73.07-75.33-73.07-47.87,0-77.68,24.88-80,62.19l38.45.77c1.57-20.21,15.7-31.09,39.24-31.09,22,0,36.88,7.77,36.88,33.43v7l-34.53,3.89c-28.25,3.89-50.22,7.77-66.7,19.43-13.34,9.33-20.4,24.88-20.4,41.2,0,32.65,23.54,62.19,65.91,62.19,29.82,0,47.87-9.33,58.86-27.21l.78,22.55h38.41c-2.48-22.2-3.79-44.52-3.92-66.86,1.57-10.11,2.35-41.98,2.35-54.42ZM878.2,238.82c0,35.76-23.54,49.75-47.87,49.75-19.62,0-32.17-11.66-32.17-28s14.12-26.43,44.73-29.54l34.52-3.89.79,11.68Z"/><path id="Path-2" class="cls-1" d="M1000.47,74h-41.47v54.49h-28v32.24h28v104.38c0,39.14,8,49.89,48.71,49.89h30.29v-33.77h-15.17c-17.57,0-22.36-4.61-22.36-23.79v-97.44h37.53v-32.27h-37.53v-53.73Z"/><path id="Path-3" class="cls-1" d="M1152.3,123.42c-24.83,0-43.64,10.83-53.42,27.07V60h-39.88v256h39.88v-98.22c0-34.81,11.29-59.56,41.38-59.56,9-.77,17.31,3.1,24.08,8.51,7.52,8.51,9.78,22.43,9.78,42.54v106h39.88v-116.83c0-24-3.76-40.22-11.29-52.59-11.28-13.92-27.84-22.43-50.41-22.43Z"/><path id="Shape-3" class="cls-1" d="M1495.43,135.57c0-57.06-36.24-75.57-107.2-75.57h-73.23v255.23h43v-102.56h49.83l50.61,103.33h47.56l-55.11-111.81c29.44-11.56,44.54-34.7,44.54-68.62ZM1395.78,175.66h-37.78v-77.11h36.24c33.22,0,58.13,3.86,58.13,37.79,0,31.61-20.38,39.32-56.62,39.32h.03Z"/><path id="Shape-4" class="cls-1" d="M1594,123c-46.32,0-88,31.09-88,99.5s41.68,99.5,88,99.5,88-31.09,88-99.5-41.68-99.5-88-99.5ZM1594,287c-27,0-46.32-21.77-46.32-64.52s19.32-64.48,46.32-64.48,46.32,21.77,46.32,64.52-18.53,64.48-46.32,64.48Z"/><path id="Shape-5" class="cls-1" d="M1796.5,123.74c-21.02-1.45-41.15,8.69-52.5,26.43V60h-41v257.29h39.41l.77-19.43c11.84,15.72,30.56,24.71,50.23,24.14,45.59,0,79.59-38.08,79.59-98.71s-31.68-99.55-76.5-99.55ZM1788,287.74c-27,0-45.59-22.54-45.59-64.51s19.32-65.3,45.59-65.3c28.59,0,43.27,25.65,43.27,64.52s-14.68,65.29-43.27,65.29Z"/><path id="Shape-6" class="cls-1" d="M1976,123c-46.32,0-88,31.09-88,99.5s41.68,99.5,88,99.5,88-31.09,88-99.5-41.68-99.5-88-99.5ZM1976,287c-27,0-46.32-21.77-46.32-64.52s19.32-64.48,46.32-64.48,46.32,21.77,46.32,64.52-18.53,64.48-46.32,64.48Z"/><path id="Path-4" class="cls-1" d="M2134.27,74h-42.27v54.49h-28v32.24h28v104.38c0,39.14,8,49.89,48.71,49.89h30.29v-33.77h-15.17c-17.57,0-22.36-4.61-22.36-23.79v-97.44h37.53v-32.27h-37.53l.8-53.73Z"/><polygon id="Path-5" class="cls-1" points="2234 131 2192 131 2192 316 2234 316 2234 131"/><polygon id="Path-6" class="cls-1" points="2234 60 2192 60 2192 102 2234 102 2234 60"/><path id="Path-7" class="cls-1" d="M2340.53,287.81c-26,0-45.94-21.76-45.94-65.28s19.91-64.5,45.94-64.5c21.5-.92,39.99,15.11,42.12,36.53l39-6.22c-6.89-38.86-40.58-66.83-79.64-65.28-55.9,0-88.06,41.19-88.06,99.47s31.45,99.47,86.58,99.47c39.82,0,74.28-23.31,83.47-66.05l-39-5.44c-3.88,22.49-22.26,38.07-44.47,37.3Z"/><path id="Path-8" class="cls-1" d="M2522.53,202.6l-21.07-4.68c-16.55-3.9-27.08-10.93-27.08-22.63s15-19.51,33.1-19.51c22.57,0,37.62,10.92,41.38,29.65l36.87-5.46c-6.77-37.46-39.12-57-76-57-39.87,0-73,21.07-73,55.41s24.83,49.16,55.68,56.19l23.32,5.46c18.06,3.9,33.86,9.36,33.86,25s-14.3,24.19-36.12,24.19c-21.06,1.56-39.87-14.82-42.13-36.67l-38.34,6.24c3.76,34.34,33.1,63.21,79,63.21,41.38,0,76-21.85,76-62.43.74-37.46-29.36-48.39-65.47-56.97Z"/></g></g></svg>